# xmcd
#
# Track frame offsets:
#	150
#	26931
#	53897
#	92594
#	115683
#	130495
#	152034
#	181088
#	209327
#	224130
#	250673
#
# Disc length: 3668 seconds
#
# Revision: 1
# Processed by: cddbd v1.5.2PL0 Copyright (c) Steve Scherf et al.
# Submitted via: audiograbber 1.83.01
#
DISCID=9d0e520b
DTITLE=Various Artist - Orkidea and Friends - Summer 2013 (Official Tour Compilation) (Promo)
DYEAR=2013
DGENRE=Trance
TTITLE0=London Elektricity - Just One Second (Orion and J.Shore Remix)
TTITLE1=Slusnik Luna - Sun (Kössin Mix)
TTITLE2=Danceteria - Passion (Heikki L and Mr.A Remix)
TTITLE3=Something Good Vs. Orkidea - Liberation (SG Remix) Vs. Before Dawn
TTITLE4=Alex Kunnari - Sweet Melody
TTITLE5=Orkidea - Tw3nty (Lovetone and JS16 Remix)
TTITLE6=Super8 and Tab Vs. Oceanlab - Awakening Satellite
TTITLE7=Heavyweight Vs. Lenno - Torn Up
TTITLE8=Rico Tubbs and Will Power - Bass Track
TTITLE9=RinneRadio - Tule! (Muffler Remix)
TTITLE10=Proteus - Freedom
EXTD=TR.
EXTT0=
EXTT1=
EXTT2=
EXTT3=
EXTT4=
EXTT5=
EXTT6=
EXTT7=
EXTT8=
EXTT9=
EXTT10=
PLAYORDER=
